<svg width="444" height="411" viewBox="0 0 444 411" fill="none" xmlns="http://www.w3.org/2000/svg">
<g clip-path="url(#clip0)">
<g opacity="0.5">
<path opacity="0.5" d="M310.056 24.7331L123.181 25.1885C122.172 25.1907 121.174 25.3917 120.243 25.7801C119.312 26.1685 118.466 26.7365 117.755 27.4519C117.043 28.1672 116.48 29.0158 116.096 29.9491C115.713 30.8824 115.517 31.8822 115.52 32.8912L116.369 382.545C116.371 383.554 116.572 384.553 116.96 385.484C117.348 386.415 117.916 387.261 118.631 387.973C119.346 388.684 120.195 389.248 121.128 389.632C122.061 390.015 123.06 390.211 124.069 390.208L310.944 389.753C311.954 389.751 312.952 389.549 313.884 389.161C314.815 388.772 315.661 388.203 316.372 387.487C317.084 386.771 317.647 385.922 318.03 384.988C318.413 384.054 318.609 383.054 318.605 382.044L317.756 32.3908C317.753 31.3822 317.552 30.3841 317.163 29.4534C316.775 28.5227 316.207 27.6777 315.492 26.9666C314.777 26.2556 313.929 25.6923 312.996 25.3091C312.064 24.9258 311.065 24.7301 310.056 24.7331Z" fill="url(#paint0_linear)"/>
</g>
<path d="M307.349 29.5069L125.909 29.9504C121.675 29.9607 118.251 33.4026 118.262 37.6381L119.092 377.609C119.102 381.844 122.543 385.269 126.777 385.259L308.217 384.816C312.451 384.805 315.875 381.363 315.865 377.128L315.034 37.1571C315.024 32.9216 311.583 29.4965 307.349 29.5069Z" fill="white"/>
<path opacity="0.4" d="M266.083 38.5137C265.523 42.2824 263.634 45.7264 260.757 48.223C257.88 50.7195 254.205 52.1038 250.397 52.1256L182.43 52.2886C178.625 52.2818 174.947 50.9141 172.061 48.4323C169.175 45.9505 167.271 42.5183 166.693 38.7554L130.695 38.8454C129.713 38.8476 128.742 39.0432 127.836 39.4211C126.93 39.7989 126.107 40.3516 125.414 41.0475C124.722 41.7435 124.173 42.5691 123.799 43.4772C123.426 44.3853 123.235 45.3581 123.237 46.3401L124.018 368.882C124.02 369.865 124.216 370.837 124.594 371.744C124.972 372.651 125.525 373.474 126.221 374.167C126.918 374.86 127.744 375.409 128.652 375.782C129.56 376.156 130.534 376.346 131.516 376.343L303.498 375.927C304.479 375.925 305.451 375.729 306.357 375.352C307.263 374.974 308.086 374.421 308.778 373.725C309.471 373.029 310.02 372.204 310.393 371.295C310.767 370.387 310.958 369.415 310.956 368.433L310.174 45.8903C310.172 44.9083 309.977 43.9364 309.599 43.0299C309.221 42.1235 308.669 41.3004 307.973 40.6076C307.277 39.9148 306.452 39.3658 305.544 38.9921C304.637 38.6183 303.664 38.4271 302.683 38.4293L266.083 38.5137Z" fill="#5F2EEA"/>
<path d="M235.662 42.6016L194.065 43.2263C193.444 43.2356 192.949 43.7466 192.958 44.3675L192.965 44.8622C192.975 45.4832 193.486 45.9791 194.106 45.9697L235.703 45.3451C236.324 45.3358 236.82 44.8248 236.81 44.2038L236.803 43.7091C236.794 43.0882 236.283 42.5923 235.662 42.6016Z" fill="#DBDBDB"/>
<path d="M246.138 45.1829C247.047 45.1692 247.773 44.4207 247.759 43.5109C247.746 42.6012 246.997 41.8748 246.088 41.8885C245.179 41.9021 244.453 42.6507 244.466 43.5604C244.48 44.4701 245.228 45.1965 246.138 45.1829Z" fill="#DBDBDB"/>
<g opacity="0.5">
<path opacity="0.5" d="M240.027 283.725C240.031 274.129 237.55 264.696 232.828 256.343C228.105 247.991 221.302 241.004 213.079 236.062C204.856 231.121 195.494 228.394 185.905 228.146C176.316 227.898 166.826 230.138 158.359 234.648C149.892 239.158 142.737 245.785 137.589 253.882C132.442 261.979 129.478 271.272 128.986 280.855C128.495 290.439 130.492 299.986 134.783 308.569C139.074 317.151 145.514 324.475 153.474 329.829L153.508 330.076C155.323 331.816 157.464 333.178 159.808 334.085L159.881 333.838C162.484 336.087 173.438 339.646 186.021 339.612H186.297C194.266 339.612 202.922 338.206 210.532 334.085C210.532 334.085 210.599 333.939 210.7 333.663C212.628 332.758 214.397 331.546 215.938 330.076C215.968 329.863 215.998 329.653 216.028 329.447C223.432 324.341 229.485 317.512 233.666 309.547C237.846 301.583 240.029 292.721 240.027 283.725Z" fill="url(#paint1_linear)"/>
</g>
<path d="M184.465 337.644C214.229 337.644 238.358 313.506 238.358 283.731C238.358 253.955 214.229 229.817 184.465 229.817C154.7 229.817 130.571 253.955 130.571 283.731C130.571 313.506 154.7 337.644 184.465 337.644Z" fill="#F5F5F5"/>
<path d="M163.877 305.9C163.877 305.9 151.035 306.951 154.435 330.352C156.194 332.044 158.27 333.37 160.545 334.254L167.767 309.802L163.877 305.9Z" fill="#FDA57D"/>
<path d="M205.546 305.9C205.546 305.9 218.389 306.951 214.989 330.352C213.23 332.044 211.154 333.37 208.879 334.254L201.657 309.79L205.546 305.9Z" fill="#FDA57D"/>
<path d="M164.434 267.549C164.434 267.549 158.325 285.339 154.992 283.652C154.992 283.652 187.151 311.444 215.551 283.652C215.551 283.652 210.549 274.757 203.327 267.532L164.434 267.549Z" fill="#333333"/>
<path d="M185.049 289.78C198.244 289.78 208.941 279.08 208.941 265.879C208.941 252.679 198.244 241.978 185.049 241.978C171.854 241.978 161.157 252.679 161.157 265.879C161.157 279.08 171.854 289.78 185.049 289.78Z" fill="#333333"/>
<path opacity="0.1" d="M205.299 305.9H163.636L159.746 322.576C159.746 322.576 157.465 330.296 160.309 333.692C163.152 337.087 189.692 344.807 209.205 334.254C210.907 329.809 211.105 324.928 209.767 320.361C207.519 312.579 209.205 319.798 209.205 319.798L205.299 305.9Z" fill="black"/>
<path opacity="0.1" d="M205.856 305.9H164.187L160.297 322.576C160.297 322.576 158.015 330.296 160.859 333.692C163.703 337.087 190.242 344.807 209.756 334.254C211.458 329.809 211.656 324.928 210.318 320.361C208.07 312.579 209.756 319.798 209.756 319.798L205.856 305.9Z" fill="black"/>
<path d="M205.546 305.9H163.877L159.988 322.576C159.988 322.576 157.706 330.296 160.55 333.692C163.394 337.087 189.933 344.807 209.447 334.254C211.149 329.809 211.346 324.928 210.009 320.361C207.761 312.579 209.447 319.798 209.447 319.798L205.546 305.9Z" fill="#5F2EEA"/>
<path opacity="0.1" d="M176.658 292.063H193.339V308.199C193.339 308.927 193.196 309.647 192.918 310.319C192.64 310.991 192.232 311.601 191.718 312.115C191.204 312.63 190.593 313.038 189.922 313.316C189.25 313.594 188.53 313.737 187.803 313.737H182.183C180.715 313.737 179.306 313.154 178.268 312.115C177.23 311.077 176.647 309.668 176.647 308.199V292.063H176.658Z" fill="black"/>
<path d="M176.658 291.45H193.339V307.587C193.339 308.314 193.196 309.034 192.918 309.706C192.64 310.378 192.232 310.988 191.718 311.503C191.204 312.017 190.593 312.425 189.922 312.703C189.25 312.981 188.53 313.125 187.803 313.125H182.183C180.715 313.125 179.306 312.541 178.268 311.503C177.23 310.464 176.647 309.055 176.647 307.587V291.45H176.658Z" fill="#FDA57D"/>
<path opacity="0.1" d="M176.692 293.851C182.064 295.859 187.978 295.875 193.362 293.896V291.849H176.692V293.851Z" fill="black"/>
<path d="M185.049 294.97C198.244 294.97 208.941 284.269 208.941 271.069C208.941 257.869 198.244 247.168 185.049 247.168C171.854 247.168 161.157 257.869 161.157 271.069C161.157 284.269 171.854 294.97 185.049 294.97Z" fill="#FDA57D"/>
<path d="M162.214 261.989H207.772C207.772 261.989 203.883 243.586 186.662 244.761C169.442 245.937 162.214 261.989 162.214 261.989Z" fill="#333333"/>
<path d="M161.657 274.217C162.883 274.217 163.877 272.352 163.877 270.051C163.877 267.75 162.883 265.885 161.657 265.885C160.431 265.885 159.437 267.75 159.437 270.051C159.437 272.352 160.431 274.217 161.657 274.217Z" fill="#FDA57D"/>
<path d="M208.323 274.217C209.549 274.217 210.543 272.352 210.543 270.051C210.543 267.75 209.549 265.885 208.323 265.885C207.097 265.885 206.103 267.75 206.103 270.051C206.103 272.352 207.097 274.217 208.323 274.217Z" fill="#FDA57D"/>
<path opacity="0.1" d="M162.214 262.607H207.772C207.772 262.607 203.883 244.205 186.662 245.38C169.442 246.555 162.214 262.607 162.214 262.607Z" fill="black"/>
<g opacity="0.5">
<path opacity="0.5" d="M194.992 137.103C194.988 127.507 197.468 118.074 202.191 109.721C206.913 101.369 213.717 94.3817 221.94 89.4404C230.163 84.499 239.525 81.7717 249.114 81.5239C258.703 81.2761 268.193 83.5163 276.66 88.0263C285.127 92.5364 292.282 99.1626 297.429 107.26C302.577 115.357 305.54 124.65 306.032 134.234C306.524 143.817 304.527 153.364 300.236 161.947C295.945 170.529 289.505 177.853 281.545 183.207L281.511 183.454C279.7 185.21 277.558 186.588 275.21 187.508L275.137 187.261C272.535 189.51 261.581 193.069 248.997 193.035H248.722C240.752 193.035 232.097 191.629 224.487 187.508C224.487 187.508 224.42 187.362 224.318 187.086C222.391 186.181 220.622 184.969 219.08 183.499C219.05 183.286 219.02 183.076 218.99 182.87C211.58 177.76 205.524 170.923 201.343 162.95C197.162 154.977 194.982 146.107 194.992 137.103Z" fill="url(#paint2_linear)"/>
</g>
<path d="M250.548 191.022C280.313 191.022 304.442 166.884 304.442 137.109C304.442 107.333 280.313 83.1952 250.548 83.1952C220.784 83.1952 196.655 107.333 196.655 137.109C196.655 166.884 220.784 191.022 250.548 191.022Z" fill="#F5F5F5"/>
<path d="M229.422 157.642C229.422 157.642 216.579 158.693 219.98 182.094C221.739 183.782 223.815 185.104 226.089 185.985L233.311 161.533L229.422 157.642Z" fill="#BE7C5E"/>
<path d="M271.085 157.642C271.085 157.642 283.928 158.693 280.527 182.094C278.768 183.782 276.691 185.104 274.418 185.985L267.196 161.533L271.085 157.642Z" fill="#BE7C5E"/>
<path d="M229.972 119.291C229.972 119.291 228.983 122.17 227.584 125.476C224.526 132.785 228.017 160.734 235.329 163.708C243.534 167.082 254.325 169.196 265.538 165.108C275.278 161.555 278.285 129.687 271.394 121.956C270.585 121.045 269.742 120.14 268.859 119.263L229.972 119.291Z" fill="#333333"/>
<path d="M250.588 141.528C263.783 141.528 274.48 130.827 274.48 117.627C274.48 104.427 263.783 93.726 250.588 93.726C237.393 93.726 226.696 104.427 226.696 117.627C226.696 130.827 237.393 141.528 250.588 141.528Z" fill="#333333"/>
<path opacity="0.1" d="M270.843 157.642H229.174L225.285 174.318C225.285 174.318 223.003 182.038 225.847 185.434C228.691 188.83 255.23 196.549 274.744 185.996C276.446 181.551 276.643 176.671 275.306 172.103C273.058 164.321 274.744 171.541 274.744 171.541L270.843 157.642Z" fill="black"/>
<path opacity="0.1" d="M271.394 157.642H229.725L225.836 174.318C225.836 174.318 223.554 182.038 226.398 185.434C229.242 188.83 255.781 196.549 275.295 185.996C276.997 181.551 277.194 176.671 275.857 172.103C273.609 164.321 275.295 171.541 275.295 171.541L271.394 157.642Z" fill="black"/>
<path d="M271.085 157.642H229.422L225.532 174.318C225.532 174.318 223.251 182.038 226.094 185.434C228.938 188.83 255.477 196.549 274.991 185.996C276.693 181.551 276.891 176.671 275.553 172.103C273.305 164.321 274.991 171.541 274.991 171.541L271.085 157.642Z" fill="#F55F44"/>
<path opacity="0.1" d="M242.197 143.811H258.866V159.947C258.866 161.416 258.283 162.824 257.245 163.863C256.207 164.902 254.799 165.485 253.33 165.485H247.71C246.242 165.485 244.834 164.902 243.796 163.863C242.757 162.824 242.174 161.416 242.174 159.947V143.811H242.197Z" fill="black"/>
<path d="M242.197 143.192H258.866V159.329C258.866 160.797 258.283 162.206 257.245 163.245C256.207 164.283 254.799 164.867 253.33 164.867H247.71C246.242 164.867 244.834 164.283 243.796 163.245C242.757 162.206 242.174 160.797 242.174 159.329V143.192H242.197Z" fill="#BE7C5E"/>
<path opacity="0.1" d="M242.236 145.593C247.609 147.601 253.523 147.617 258.906 145.638V143.591H242.236V145.593Z" fill="black"/>
<path d="M250.588 146.712C263.783 146.712 274.48 136.011 274.48 122.811C274.48 109.611 263.783 98.9099 250.588 98.9099C237.393 98.9099 226.696 109.611 226.696 122.811C226.696 136.011 237.393 146.712 250.588 146.712Z" fill="#BE7C5E"/>
<path d="M227.752 113.736H273.311C273.311 113.736 269.421 95.334 252.201 96.5091C234.98 97.6841 227.752 113.736 227.752 113.736Z" fill="#333333"/>
<path d="M227.196 125.959C228.422 125.959 229.416 124.094 229.416 121.793C229.416 119.492 228.422 117.627 227.196 117.627C225.97 117.627 224.976 119.492 224.976 121.793C224.976 124.094 225.97 125.959 227.196 125.959Z" fill="#BE7C5E"/>
<path d="M273.862 125.959C275.088 125.959 276.082 124.094 276.082 121.793C276.082 119.492 275.088 117.627 273.862 117.627C272.635 117.627 271.642 119.492 271.642 121.793C271.642 124.094 272.635 125.959 273.862 125.959Z" fill="#BE7C5E"/>
<path opacity="0.1" d="M227.752 114.355H273.311C273.311 114.355 269.421 95.9525 252.201 97.1276C234.98 98.3027 227.752 114.355 227.752 114.355Z" fill="black"/>
<g opacity="0.5">
<path opacity="0.5" d="M2.81017 88.8964V169.14H129.189C129.189 169.14 138.519 187.508 154.559 192.85C154.559 192.85 149.439 179.839 154.784 169.14H189.967V88.8964H2.81017Z" fill="url(#paint3_linear)"/>
</g>
<path d="M7.86845 91.6458V167.549H134.326C134.326 167.549 134.326 182.729 149.501 187.789C149.501 187.789 144.442 177.669 149.501 167.549H184.909V91.6458H7.86845Z" fill="white"/>
<path d="M124.209 106.826H23.0433V116.947H124.209V106.826Z" fill="#5F2EEA"/>
<path d="M159.617 122.007H23.0433V132.127H159.617V122.007Z" fill="#5F2EEA"/>
<path d="M144.442 137.187H23.0433V147.308H144.442V137.187Z" fill="#5F2EEA"/>
<g opacity="0.5">
<path opacity="0.5" d="M432.765 243.513V323.757H306.392C306.392 323.757 297.062 342.125 281.016 347.467C281.016 347.467 286.136 334.456 280.791 323.757H245.608V243.513H432.765Z" fill="url(#paint4_linear)"/>
</g>
<path d="M427.707 246.263V322.166H301.249C301.249 322.166 301.249 337.346 286.074 342.406C286.074 342.406 291.133 332.286 286.074 322.166H250.666V246.263H427.707Z" fill="white"/>
<path d="M372.628 261.443H271.462V271.564H372.628V261.443Z" fill="#5F2EEA"/>
<path d="M408.036 276.624H271.462V286.744H408.036V276.624Z" fill="#5F2EEA"/>
<path d="M392.861 291.804H271.462V301.925H392.861V291.804Z" fill="#5F2EEA"/>
<g opacity="0.5">
<path opacity="0.5" d="M48.8968 401.442H47.2107V411H48.8968V401.442Z" fill="#47E6B1"/>
<path opacity="0.5" d="M52.831 407.064V405.378H43.2765V407.064H52.831Z" fill="#47E6B1"/>
</g>
<g opacity="0.5">
<path opacity="0.5" d="M357.453 107.951H355.767V117.509H357.453V107.951Z" fill="#47E6B1"/>
<path opacity="0.5" d="M361.387 113.573V111.886H351.832V113.573H361.387Z" fill="#47E6B1"/>
</g>
<g opacity="0.5">
<path opacity="0.5" d="M393.423 344.093H391.737V353.651H393.423V344.093Z" fill="#47E6B1"/>
<path opacity="0.5" d="M397.357 349.716V348.029H387.802V349.716H397.357Z" fill="#47E6B1"/>
</g>
<g opacity="0.5">
<path opacity="0.5" d="M287.199 0H285.512V9.55814H287.199V0Z" fill="#47E6B1"/>
<path opacity="0.5" d="M291.133 5.6224V3.93567L281.578 3.93567V5.6224L291.133 5.6224Z" fill="#47E6B1"/>
</g>
<path opacity="0.5" d="M145.398 400.492C144.938 400.285 144.569 399.917 144.362 399.457C144.155 398.997 144.124 398.477 144.274 397.995C144.298 397.921 144.313 397.843 144.319 397.765C144.333 397.542 144.275 397.321 144.154 397.134C144.032 396.947 143.853 396.805 143.644 396.728C143.435 396.65 143.207 396.643 142.993 396.706C142.779 396.77 142.592 396.9 142.458 397.079C142.413 397.142 142.375 397.21 142.346 397.281C142.139 397.741 141.771 398.11 141.312 398.317C140.852 398.524 140.332 398.556 139.851 398.406C139.776 398.382 139.698 398.367 139.62 398.361C139.398 398.346 139.177 398.404 138.99 398.526C138.803 398.647 138.66 398.826 138.583 399.035C138.506 399.245 138.499 399.473 138.562 399.687C138.625 399.901 138.756 400.088 138.934 400.222C138.997 400.267 139.065 400.305 139.137 400.334C139.597 400.541 139.965 400.909 140.172 401.369C140.379 401.829 140.411 402.349 140.261 402.831C140.237 402.905 140.222 402.983 140.216 403.061C140.202 403.284 140.259 403.505 140.381 403.692C140.502 403.879 140.681 404.021 140.89 404.098C141.099 404.176 141.328 404.183 141.541 404.12C141.755 404.056 141.943 403.926 142.076 403.747C142.121 403.684 142.159 403.616 142.189 403.545C142.395 403.084 142.763 402.716 143.223 402.509C143.683 402.302 144.203 402.27 144.684 402.42C144.759 402.444 144.836 402.459 144.914 402.465C145.137 402.479 145.358 402.422 145.545 402.3C145.732 402.178 145.874 402 145.951 401.791C146.028 401.581 146.036 401.353 145.973 401.139C145.909 400.925 145.779 400.738 145.6 400.604C145.537 400.559 145.469 400.521 145.398 400.492Z" fill="#4D8AF0"/>
<path opacity="0.5" d="M32.5417 222.064C32.0816 221.857 31.7133 221.489 31.5061 221.029C31.299 220.569 31.2675 220.049 31.4176 219.567C31.4416 219.492 31.4567 219.415 31.4626 219.337C31.4769 219.114 31.419 218.893 31.2975 218.706C31.176 218.519 30.9974 218.377 30.7882 218.299C30.5791 218.222 30.3507 218.215 30.1369 218.278C29.9232 218.341 29.7357 218.472 29.6023 218.651C29.557 218.714 29.5193 218.782 29.4898 218.853C29.2832 219.313 28.9152 219.682 28.4554 219.889C27.9956 220.096 27.4759 220.128 26.9944 219.978C26.9196 219.954 26.8423 219.939 26.764 219.933C26.5416 219.918 26.3205 219.976 26.1336 220.098C25.9468 220.219 25.8042 220.398 25.7271 220.607C25.65 220.817 25.6426 221.045 25.7058 221.259C25.7691 221.473 25.8998 221.66 26.0783 221.794C26.1411 221.839 26.209 221.877 26.2806 221.906C26.7407 222.113 27.109 222.481 27.3162 222.941C27.5233 223.401 27.5548 223.921 27.4047 224.403C27.3807 224.477 27.3656 224.555 27.3597 224.633C27.3362 224.86 27.388 225.088 27.5072 225.282C27.6264 225.476 27.8062 225.625 28.0189 225.706C28.2315 225.788 28.465 225.797 28.6832 225.732C28.9014 225.667 29.0921 225.531 29.2257 225.347C29.2709 225.284 29.3086 225.216 29.3381 225.145C29.5447 224.684 29.9127 224.316 30.3725 224.109C30.8323 223.902 31.3521 223.87 31.8335 224.02C31.9083 224.044 31.9856 224.059 32.0639 224.065C32.2864 224.08 32.5075 224.022 32.6943 223.9C32.8812 223.778 33.0238 223.6 33.1008 223.391C33.1779 223.181 33.1854 222.953 33.1221 222.739C33.0588 222.525 32.9281 222.338 32.7496 222.204C32.6865 222.149 32.6166 222.101 32.5417 222.064Z" fill="#4D8AF0"/>
<path opacity="0.5" d="M93.8032 270.979C93.3432 270.772 92.9748 270.404 92.7677 269.944C92.5605 269.484 92.529 268.964 92.6791 268.483C92.7032 268.408 92.7183 268.33 92.7241 268.252C92.7384 268.029 92.6805 267.808 92.559 267.621C92.4375 267.434 92.2589 267.292 92.0497 267.215C91.8406 267.138 91.6122 267.13 91.3985 267.193C91.1848 267.257 90.9972 267.387 90.8638 267.566C90.8186 267.629 90.7808 267.697 90.7514 267.768C90.5447 268.229 90.1767 268.597 89.7169 268.804C89.2571 269.012 88.7374 269.043 88.2559 268.893C88.1812 268.869 88.1038 268.854 88.0255 268.848C87.8031 268.834 87.582 268.892 87.3951 269.013C87.2083 269.135 87.0657 269.313 86.9886 269.523C86.9115 269.732 86.9041 269.96 86.9674 270.174C87.0307 270.388 87.1613 270.575 87.3398 270.709C87.4027 270.754 87.4706 270.792 87.5422 270.821C88.0022 271.028 88.3706 271.396 88.5777 271.856C88.7848 272.316 88.8163 272.836 88.6662 273.318C88.6422 273.393 88.6271 273.47 88.6213 273.548C88.5977 273.775 88.6496 274.003 88.7687 274.197C88.8879 274.391 89.0678 274.54 89.2804 274.621C89.493 274.703 89.7265 274.712 89.9447 274.647C90.1629 274.582 90.3536 274.447 90.4872 274.262C90.5324 274.199 90.5701 274.132 90.5996 274.06C90.8062 273.6 91.1742 273.231 91.634 273.024C92.0938 272.817 92.6136 272.785 93.095 272.935C93.1698 272.959 93.2471 272.975 93.3255 272.98C93.5479 272.995 93.769 272.937 93.9558 272.815C94.1427 272.694 94.2853 272.515 94.3624 272.306C94.4394 272.097 94.4469 271.868 94.3836 271.654C94.3203 271.441 94.1897 271.253 94.0111 271.119C93.948 271.064 93.8782 271.017 93.8032 270.979Z" fill="#4D8AF0"/>
<path opacity="0.5" d="M443.387 403.668C442.927 403.462 442.559 403.093 442.352 402.634C442.145 402.174 442.113 401.654 442.263 401.172C442.287 401.097 442.302 401.02 442.308 400.941C442.323 400.719 442.265 400.498 442.143 400.311C442.022 400.124 441.843 399.981 441.634 399.904C441.425 399.827 441.196 399.82 440.983 399.883C440.769 399.946 440.581 400.077 440.448 400.256C440.403 400.318 440.365 400.386 440.336 400.458C440.129 400.918 439.761 401.287 439.301 401.494C438.841 401.701 438.322 401.733 437.84 401.582C437.765 401.558 437.688 401.543 437.61 401.537C437.387 401.523 437.166 401.581 436.979 401.703C436.793 401.824 436.65 402.003 436.573 402.212C436.496 402.421 436.488 402.65 436.552 402.864C436.615 403.077 436.746 403.265 436.924 403.398C436.987 403.444 437.055 403.481 437.126 403.511C437.586 403.718 437.955 404.086 438.162 404.546C438.369 405.006 438.401 405.526 438.25 406.007C438.226 406.082 438.211 406.159 438.205 406.238C438.182 406.464 438.234 406.692 438.353 406.886C438.472 407.08 438.652 407.23 438.865 407.311C439.077 407.392 439.311 407.401 439.529 407.336C439.747 407.271 439.938 407.136 440.071 406.952C440.117 406.889 440.154 406.821 440.184 406.749C440.39 406.289 440.758 405.921 441.218 405.713C441.678 405.506 442.198 405.475 442.679 405.625C442.754 405.649 442.831 405.664 442.91 405.67C443.132 405.684 443.353 405.626 443.54 405.505C443.727 405.383 443.87 405.204 443.947 404.995C444.024 404.786 444.031 404.558 443.968 404.344C443.905 404.13 443.774 403.942 443.595 403.809C443.532 403.753 443.462 403.706 443.387 403.668Z" fill="#4D8AF0"/>
<path opacity="0.5" d="M3.37219 373.892C5.23461 373.892 6.74439 372.382 6.74439 370.518C6.74439 368.655 5.23461 367.145 3.37219 367.145C1.50978 367.145 0 368.655 0 370.518C0 372.382 1.50978 373.892 3.37219 373.892Z" fill="#F55F44"/>
<path opacity="0.5" d="M383.868 39.357C385.731 39.357 387.24 37.8467 387.24 35.9836C387.24 34.1205 385.731 32.6101 383.868 32.6101C382.006 32.6101 380.496 34.1205 380.496 35.9836C380.496 37.8467 382.006 39.357 383.868 39.357Z" fill="#4D8AF0"/>
<path opacity="0.5" d="M58.4514 46.104C60.3138 46.104 61.8236 44.5936 61.8236 42.7305C61.8236 40.8674 60.3138 39.3571 58.4514 39.3571C56.589 39.3571 55.0792 40.8674 55.0792 42.7305C55.0792 44.5936 56.589 46.104 58.4514 46.104Z" fill="#47E6B1"/>
<path opacity="0.5" d="M387.24 197.91C389.103 197.91 390.613 196.399 390.613 194.536C390.613 192.673 389.103 191.163 387.24 191.163C385.378 191.163 383.868 192.673 383.868 194.536C383.868 196.399 385.378 197.91 387.24 197.91Z" fill="#F55F44"/>
</g>
<defs>
<linearGradient id="paint0_linear" x1="137.567" y1="396.539" x2="296.666" y2="18.4318" gradientUnits="userSpaceOnUse">
<stop stop-color="#808080" stop-opacity="0.25"/>
<stop offset="0.54" stop-color="#808080" stop-opacity="0.12"/>
<stop offset="1" stop-color="#808080" stop-opacity="0.1"/>
</linearGradient>
<linearGradient id="paint1_linear" x1="59375.9" y1="76994.4" x2="59375.9" y2="54886.9" gradientUnits="userSpaceOnUse">
<stop stop-color="#808080" stop-opacity="0.25"/>
<stop offset="0.54" stop-color="#808080" stop-opacity="0.12"/>
<stop offset="1" stop-color="#808080" stop-opacity="0.1"/>
</linearGradient>
<linearGradient id="paint2_linear" x1="66579.9" y1="47794" x2="66579.9" y2="25677.6" gradientUnits="userSpaceOnUse">
<stop stop-color="#808080" stop-opacity="0.25"/>
<stop offset="0.54" stop-color="#808080" stop-opacity="0.12"/>
<stop offset="1" stop-color="#808080" stop-opacity="0.1"/>
</linearGradient>
<linearGradient id="paint3_linear" x1="70467.3" y1="44528.9" x2="70467.3" y2="25309" gradientUnits="userSpaceOnUse">
<stop stop-color="#808080" stop-opacity="0.25"/>
<stop offset="0.54" stop-color="#808080" stop-opacity="0.12"/>
<stop offset="1" stop-color="#808080" stop-opacity="0.1"/>
</linearGradient>
<linearGradient id="paint4_linear" x1="-618303" y1="73270.6" x2="-618303" y2="54050.7" gradientUnits="userSpaceOnUse">
<stop stop-color="#808080" stop-opacity="0.25"/>
<stop offset="0.54" stop-color="#808080" stop-opacity="0.12"/>
<stop offset="1" stop-color="#808080" stop-opacity="0.1"/>
</linearGradient>
<clipPath id="clip0">
<rect width="444" height="411" fill="white"/>
</clipPath>
</defs>
</svg>
