<svg width="498" height="351" viewBox="0 0 498 351" fill="none" xmlns="http://www.w3.org/2000/svg">
<g clip-path="url(#clip0)">
<path d="M110.352 35.16H78.5939C75.5407 35.1628 72.6133 36.3772 70.4543 38.5366C68.2953 40.6961 67.0812 43.6241 67.0784 46.678V81.1166C66.6724 81.0924 66.2664 81.056 65.8663 81.0075C58.3424 80.2158 51.1893 77.3374 45.2135 72.6971C39.2376 68.0567 34.6766 61.8388 32.0448 54.7445C29.4129 47.6501 28.8149 39.9615 30.3181 32.5453C31.8212 25.1292 35.3658 18.2806 40.5523 12.7716C45.7387 7.26261 52.3606 3.31237 59.6715 1.36624C66.9824 -0.579898 74.6915 -0.444524 81.9296 1.7571C89.1676 3.95873 95.6469 8.13905 100.637 13.8267C105.627 19.5144 108.929 26.4833 110.171 33.9476C110.237 34.3477 110.298 34.7539 110.352 35.16Z" fill="#F2F2F2"/>
<path d="M485.272 33.9476H78.594C75.2195 33.9513 71.9843 35.2937 69.5982 37.6803C67.2121 40.067 65.87 43.3028 65.8663 46.678V261.275C65.87 264.651 67.2121 267.887 69.5982 270.273C71.9843 272.66 75.2195 274.002 78.594 274.006H485.272C488.647 274.002 491.882 272.66 494.268 270.273C496.654 267.887 497.996 264.651 498 261.275V46.678C497.996 43.3028 496.654 40.067 494.268 37.6803C491.882 35.2937 488.647 33.9513 485.272 33.9476ZM496.788 261.275C496.785 264.329 495.571 267.257 493.412 269.417C491.253 271.576 488.326 272.791 485.272 272.793H78.594C75.5407 272.791 72.6133 271.576 70.4543 269.417C68.2954 267.257 67.0812 264.329 67.0785 261.275V46.678C67.0812 43.6241 68.2954 40.6961 70.4543 38.5366C72.6133 36.3772 75.5407 35.1628 78.594 35.16H485.272C488.326 35.1628 491.253 36.3772 493.412 38.5366C495.571 40.6961 496.785 43.6241 496.788 46.678V261.275Z" fill="#3F3D56"/>
<path d="M465.272 68.7255H98.5945C98.4338 68.7255 98.2796 68.6617 98.166 68.548C98.0523 68.4343 97.9884 68.2801 97.9884 68.1193C97.9884 67.9586 98.0523 67.8044 98.166 67.6907C98.2796 67.577 98.4338 67.5131 98.5945 67.5131H465.272C465.433 67.5131 465.587 67.577 465.7 67.6907C465.814 67.8044 465.878 67.9586 465.878 68.1193C465.878 68.2801 465.814 68.4343 465.7 68.548C465.587 68.6617 465.433 68.7255 465.272 68.7255Z" fill="#3F3D56"/>
<path d="M202.234 247.939C202.073 247.939 201.919 247.875 201.805 247.761C201.692 247.648 201.628 247.493 201.628 247.333V47.8904C201.628 47.7296 201.692 47.5754 201.805 47.4617C201.919 47.3481 202.073 47.2842 202.234 47.2842C202.395 47.2842 202.549 47.3481 202.662 47.4617C202.776 47.5754 202.84 47.7296 202.84 47.8904V247.333C202.84 247.493 202.776 247.648 202.662 247.761C202.549 247.875 202.395 247.939 202.234 247.939Z" fill="#3F3D56"/>
<path d="M293.752 247.939C293.591 247.939 293.437 247.875 293.323 247.761C293.209 247.648 293.146 247.493 293.146 247.333V47.8904C293.146 47.7296 293.209 47.5754 293.323 47.4617C293.437 47.3481 293.591 47.2842 293.752 47.2842C293.912 47.2842 294.067 47.3481 294.18 47.4617C294.294 47.5754 294.358 47.7296 294.358 47.8904V247.333C294.358 247.493 294.294 247.648 294.18 247.761C294.067 247.875 293.912 247.939 293.752 247.939Z" fill="#3F3D56"/>
<path d="M385.269 247.939C385.109 247.939 384.955 247.875 384.841 247.761C384.727 247.648 384.663 247.493 384.663 247.333V47.8904C384.663 47.7296 384.727 47.5754 384.841 47.4617C384.955 47.3481 385.109 47.2842 385.269 47.2842C385.43 47.2842 385.584 47.3481 385.698 47.4617C385.812 47.5754 385.876 47.7296 385.876 47.8904V247.333C385.876 247.493 385.812 247.648 385.698 247.761C385.584 247.875 385.43 247.939 385.269 247.939Z" fill="#3F3D56"/>
<path d="M143.393 131.297H121.247C120.524 131.296 119.831 131.008 119.319 130.497C118.808 129.986 118.521 129.292 118.52 128.569V102.43C118.521 101.706 118.808 101.013 119.319 100.501C119.831 99.9901 120.524 99.7024 121.247 99.7016H143.393C144.116 99.7024 144.81 99.9901 145.321 100.501C145.832 101.013 146.12 101.706 146.121 102.43V128.569C146.12 129.292 145.832 129.986 145.321 130.497C144.81 131.008 144.116 131.296 143.393 131.297Z" fill="#F4B740"/>
<path d="M174.909 205.86H152.763C152.04 205.86 151.347 205.572 150.836 205.061C150.324 204.549 150.037 203.856 150.036 203.133V176.993C150.037 176.27 150.324 175.576 150.836 175.065C151.347 174.554 152.04 174.266 152.763 174.265H174.909C175.632 174.266 176.326 174.554 176.837 175.065C177.348 175.576 177.636 176.27 177.637 176.993V203.133C177.636 203.856 177.348 204.549 176.837 205.061C176.326 205.572 175.632 205.86 174.909 205.86Z" fill="#00BA88"/>
<path d="M246.427 147.058H224.28C223.557 147.058 222.864 146.77 222.353 146.258C221.841 145.747 221.554 145.054 221.553 144.33V118.191C221.554 117.468 221.841 116.774 222.353 116.263C222.864 115.752 223.557 115.464 224.28 115.463H246.427C247.15 115.464 247.843 115.752 248.354 116.263C248.865 116.774 249.153 117.468 249.154 118.191V144.33C249.153 145.054 248.865 145.747 248.354 146.258C247.843 146.77 247.15 147.058 246.427 147.058Z" fill="#F4B740"/>
<path d="M339.156 118.567H317.01C316.287 118.566 315.594 118.278 315.083 117.767C314.571 117.255 314.284 116.562 314.283 115.839V89.6992C314.284 88.976 314.571 88.2826 315.083 87.7712C315.594 87.2597 316.287 86.9721 317.01 86.9713H339.156C339.88 86.9721 340.573 87.2597 341.084 87.7712C341.595 88.2826 341.883 88.976 341.884 89.6992V115.839C341.883 116.562 341.595 117.255 341.084 117.767C340.573 118.278 339.88 118.566 339.156 118.567Z" fill="#F4B740"/>
<path d="M424.614 118.567H402.467C401.744 118.566 401.051 118.278 400.54 117.767C400.028 117.255 399.741 116.562 399.74 115.839V89.6992C399.741 88.976 400.028 88.2826 400.54 87.7712C401.051 87.2597 401.744 86.9721 402.467 86.9713H424.614C425.337 86.9721 426.03 87.2597 426.541 87.7712C427.052 88.2826 427.34 88.976 427.341 89.6992V115.839C427.34 116.562 427.052 117.255 426.541 117.767C426.03 118.278 425.337 118.566 424.614 118.567Z" fill="#00BA88"/>
<path d="M464.009 125.841H441.863C441.139 125.84 440.446 125.553 439.935 125.041C439.424 124.53 439.136 123.836 439.135 123.113V96.9737C439.136 96.2504 439.424 95.5571 439.935 95.0456C440.446 94.5342 441.139 94.2466 441.863 94.2458H464.009C464.732 94.2466 465.425 94.5342 465.936 95.0456C466.448 95.5571 466.735 96.2504 466.736 96.9737V123.113C466.735 123.836 466.448 124.53 465.936 125.041C465.425 125.553 464.732 125.84 464.009 125.841Z" fill="#E6E6E6"/>
<path d="M446.432 172.519H424.286C423.563 172.518 422.87 172.231 422.359 171.719C421.847 171.208 421.56 170.514 421.559 169.791V143.652C421.56 142.928 421.847 142.235 422.359 141.724C422.87 141.212 423.563 140.925 424.286 140.924H446.432C447.155 140.925 447.849 141.212 448.36 141.724C448.871 142.235 449.159 142.928 449.16 143.652V169.791C449.159 170.514 448.871 171.208 448.36 171.719C447.849 172.231 447.155 172.518 446.432 172.519Z" fill="#E6E6E6"/>
<path d="M371.279 162.82H349.133C348.409 162.819 347.716 162.531 347.205 162.02C346.694 161.508 346.406 160.815 346.405 160.092V133.952C346.406 133.229 346.694 132.536 347.205 132.024C347.716 131.513 348.409 131.225 349.133 131.224H371.279C372.002 131.225 372.695 131.513 373.206 132.024C373.718 132.536 374.005 133.229 374.006 133.952V160.092C374.005 160.815 373.718 161.508 373.206 162.02C372.695 162.531 372.002 162.819 371.279 162.82Z" fill="#5F2EEA"/>
<path d="M328.247 172.519H306.101C305.378 172.518 304.685 172.231 304.173 171.719C303.662 171.208 303.374 170.514 303.374 169.791V143.652C303.374 142.928 303.662 142.235 304.173 141.724C304.685 141.212 305.378 140.925 306.101 140.924H328.247C328.97 140.925 329.663 141.212 330.175 141.724C330.686 142.235 330.974 142.928 330.974 143.652V169.791C330.974 170.514 330.686 171.208 330.175 171.719C329.663 172.231 328.97 172.518 328.247 172.519Z" fill="#E6E6E6"/>
<path d="M235.517 213.741H213.371C212.648 213.74 211.955 213.453 211.443 212.941C210.932 212.43 210.645 211.736 210.644 211.013V184.874C210.645 184.151 210.932 183.457 211.443 182.946C211.955 182.434 212.648 182.147 213.371 182.146H235.517C236.24 182.147 236.933 182.434 237.445 182.946C237.956 183.457 238.244 184.151 238.244 184.874V211.013C238.244 211.736 237.956 212.43 237.445 212.941C236.933 213.453 236.24 213.74 235.517 213.741Z" fill="#E6E6E6"/>
<path d="M123.393 179.187H101.247C100.523 179.187 99.8302 178.899 99.3189 178.387C98.8076 177.876 98.52 177.183 98.5192 176.459V150.32C98.52 149.597 98.8076 148.903 99.3189 148.392C99.8302 147.88 100.523 147.593 101.247 147.592H123.393C124.116 147.593 124.809 147.88 125.32 148.392C125.832 148.903 126.119 149.597 126.12 150.32V176.459C126.119 177.183 125.832 177.876 125.32 178.387C124.809 178.899 124.116 179.187 123.393 179.187Z" fill="#5F2EEA"/>
<path d="M185.819 131.297H163.673C162.949 131.296 162.256 131.008 161.745 130.497C161.234 129.986 160.946 129.292 160.945 128.569V102.43C160.946 101.706 161.234 101.013 161.745 100.501C162.256 99.9901 162.949 99.7024 163.673 99.7016H185.819C186.542 99.7024 187.235 99.9901 187.746 100.501C188.258 101.013 188.545 101.706 188.546 102.43V128.569C188.545 129.292 188.258 129.986 187.746 130.497C187.235 131.008 186.542 131.296 185.819 131.297Z" fill="#E6E6E6"/>
<path d="M167.687 58.8021H133.141C132.498 58.8021 131.881 58.5467 131.427 58.0919C130.972 57.6372 130.717 57.0204 130.717 56.3773C130.717 55.7342 130.972 55.1174 131.427 54.6627C131.881 54.2079 132.498 53.9525 133.141 53.9525H167.687C168.33 53.9525 168.947 54.2079 169.402 54.6627C169.856 55.1174 170.112 55.7342 170.112 56.3773C170.112 57.0204 169.856 57.6372 169.402 58.0919C168.947 58.5467 168.33 58.8021 167.687 58.8021Z" fill="#CCCCCC"/>
<path d="M265.266 58.8021H230.72C230.077 58.8021 229.46 58.5467 229.005 58.0919C228.551 57.6372 228.295 57.0204 228.295 56.3773C228.295 55.7342 228.551 55.1174 229.005 54.6627C229.46 54.2079 230.077 53.9525 230.72 53.9525H265.266C265.909 53.9525 266.526 54.2079 266.98 54.6627C267.435 55.1174 267.69 55.7342 267.69 56.3773C267.69 57.0204 267.435 57.6372 266.98 58.0919C266.526 58.5467 265.909 58.8021 265.266 58.8021Z" fill="#CCCCCC"/>
<path d="M356.784 58.8021H322.237C321.594 58.8021 320.978 58.5467 320.523 58.0919C320.068 57.6372 319.813 57.0204 319.813 56.3773C319.813 55.7342 320.068 55.1174 320.523 54.6627C320.978 54.2079 321.594 53.9525 322.237 53.9525H356.784C357.427 53.9525 358.043 54.2079 358.498 54.6627C358.953 55.1174 359.208 55.7342 359.208 56.3773C359.208 57.0204 358.953 57.6372 358.498 58.0919C358.043 58.5467 357.427 58.8021 356.784 58.8021Z" fill="#CCCCCC"/>
<path d="M442.241 58.8021H407.694C407.051 58.8021 406.435 58.5467 405.98 58.0919C405.525 57.6372 405.27 57.0204 405.27 56.3773C405.27 55.7342 405.525 55.1174 405.98 54.6627C406.435 54.2079 407.051 53.9525 407.694 53.9525H442.241C442.884 53.9525 443.5 54.2079 443.955 54.6627C444.41 55.1174 444.665 55.7342 444.665 56.3773C444.665 57.0204 444.41 57.6372 443.955 58.0919C443.5 58.5467 442.884 58.8021 442.241 58.8021Z" fill="#CCCCCC"/>
<path d="M90.3112 236.355C89.4245 236.268 88.5675 235.988 87.8008 235.534C87.0341 235.08 86.3762 234.463 85.8735 233.728C85.3707 232.992 85.0354 232.155 84.8911 231.275C84.7468 230.396 84.7971 229.496 85.0383 228.638L69.5028 214.173L77.7168 212.089L92.9935 224.482C94.4075 224.983 95.5887 225.985 96.3133 227.299C97.0379 228.613 97.2555 230.147 96.9249 231.61C96.5942 233.074 95.7384 234.365 94.5194 235.24C93.3005 236.114 91.8032 236.511 90.3112 236.355Z" fill="#FFB8B8"/>
<path d="M111.763 343.267H119.194L122.728 314.601H111.762L111.763 343.267Z" fill="#FFB8B8"/>
<path d="M133.524 350.167L110.171 350.168L110.171 341.144L124.501 341.143C126.894 341.143 129.189 342.094 130.881 343.786C132.573 345.478 133.524 347.774 133.524 350.167L133.524 350.167Z" fill="#2F2E41"/>
<path d="M60.8169 337.901L67.9977 339.813L78.7865 313.021L68.1892 310.199L60.8169 337.901Z" fill="#FFB8B8"/>
<path d="M80.0708 350.169L57.504 344.161L59.8247 335.44L73.6726 339.127C75.985 339.743 77.9582 341.252 79.1581 343.323C80.358 345.394 80.6863 347.856 80.0708 350.169Z" fill="#2F2E41"/>
<path d="M121.192 337.839H109.854C109.138 337.842 108.447 337.576 107.916 337.095C107.386 336.613 107.056 335.95 106.99 335.237L100.107 263.746C100.056 263.221 99.8251 262.731 99.4529 262.358C99.0807 261.985 98.5906 261.754 98.0664 261.702C97.5422 261.651 97.0165 261.784 96.5793 262.078C96.142 262.371 95.8204 262.808 95.6695 263.313L75.6851 330.116C75.4737 330.826 74.9964 331.427 74.3528 331.794C73.7091 332.16 72.9488 332.264 72.2304 332.084L61.6828 329.446C61.3146 329.354 60.9684 329.19 60.6638 328.964C60.3593 328.737 60.1025 328.453 59.9083 328.127C59.7141 327.801 59.5863 327.439 59.5323 327.064C59.4783 326.688 59.4991 326.305 59.5935 325.938C59.7657 325.265 76.8125 258.632 76.9614 257.947C80.8238 229.474 85.4447 221.845 87.9272 217.746C88.1327 217.407 88.3215 217.095 88.4915 216.8C88.7043 216.432 90.0143 212.772 90.8453 210.396C90.9532 210.01 91.14 209.65 91.3941 209.339C91.6481 209.028 91.9637 208.774 92.3211 208.591C102.752 203.255 114.957 206.949 118.449 208.208C119.028 208.412 119.525 208.798 119.866 209.309C130.342 225.113 125.201 316.905 124.064 335.146C124.016 335.875 123.693 336.56 123.16 337.06C122.627 337.56 121.923 337.839 121.192 337.839Z" fill="#2F2E41"/>
<path d="M91.9324 156.756C100.154 156.756 106.818 150.09 106.818 141.867C106.818 133.644 100.154 126.978 91.9324 126.978C83.7112 126.978 77.0465 133.644 77.0465 141.867C77.0465 150.09 83.7112 156.756 91.9324 156.756Z" fill="#FFB8B8"/>
<path d="M90.3552 213.287L90.2482 213.183C90.0476 212.989 70.2139 193.554 72.7807 175.584C73.8785 167.897 80.0963 162.986 90.7617 161.38C94.6799 160.798 98.6765 161.65 102.017 163.779C105.357 165.909 107.817 169.173 108.944 172.971L119.49 209.031L90.3552 213.287Z" fill="#CCCCCC"/>
<path d="M80.204 227.11L66.0712 213.064C65.1049 212.098 64.4033 210.899 64.034 209.584C63.6646 208.268 63.6399 206.88 63.9623 205.552L70.804 177.715C71.0089 176.881 71.3829 176.098 71.9026 175.414C72.4224 174.731 73.0769 174.161 73.8257 173.74C74.5745 173.32 75.4016 173.057 76.2559 172.969C77.1101 172.882 77.9733 172.97 78.7921 173.229C80.3526 173.732 81.656 174.823 82.4263 176.271C83.1966 177.719 83.3733 179.409 82.9189 180.985L75.716 205.474L87.3637 217.984L80.204 227.11Z" fill="#CCCCCC"/>
<path d="M156.007 179.172C155.633 179.981 155.087 180.698 154.406 181.273C153.725 181.848 152.927 182.267 152.067 182.5C151.207 182.733 150.306 182.774 149.428 182.621C148.551 182.468 147.717 182.124 146.986 181.614L128.12 191.395L128.953 183.087L145.679 172.733C146.617 171.562 147.952 170.776 149.431 170.524C150.91 170.272 152.43 170.571 153.703 171.365C154.976 172.158 155.913 173.391 156.338 174.83C156.763 176.269 156.645 177.814 156.007 179.172H156.007Z" fill="#FFB8B8"/>
<path d="M144.926 185.357L126.534 193.306C125.31 193.831 123.971 194.032 122.647 193.89C121.322 193.748 120.057 193.268 118.972 192.495L95.5839 175.734C94.8859 175.234 94.298 174.595 93.8565 173.859C93.415 173.122 93.1293 172.303 93.0172 171.451C92.9051 170.599 92.9689 169.734 93.2046 168.908C93.4404 168.082 93.8431 167.313 94.3878 166.649C95.4346 165.387 96.9316 164.582 98.5616 164.404C100.192 164.227 101.827 164.691 103.121 165.699L123.175 181.486L139.115 175.317L144.926 185.357Z" fill="#CCCCCC"/>
<path d="M94.4003 146.638C96.2367 144.337 99.6676 144.213 102.19 142.695C105.494 140.706 106.86 136.263 105.796 132.556C104.731 128.849 101.591 125.959 97.9902 124.578C94.3899 123.196 90.3843 123.179 86.5863 123.847C80.9315 124.841 75.3641 127.481 71.9153 132.072C68.4664 136.664 67.5888 143.388 70.7144 148.205C72.1509 150.419 74.3685 152.247 74.9421 154.823C75.695 158.206 73.323 161.468 70.7818 163.823C67.8867 166.506 64.5653 168.753 62.0289 171.778C59.4925 174.803 57.8011 178.935 58.9585 182.709C59.9282 185.872 62.7501 188.201 65.8444 189.368C68.9387 190.535 72.3089 190.703 75.6151 190.768C78.8256 190.831 82.2357 190.753 84.9402 189.021C87.8356 187.168 89.3815 183.651 89.4957 180.215C89.6099 176.778 88.4618 173.412 86.9231 170.337C86.006 168.504 84.9396 166.729 84.3302 164.772C83.7208 162.815 83.6152 160.595 84.5911 158.793C85.617 156.899 87.6925 155.756 89.8059 155.341C89.9157 155.32 90.0319 155.3 90.1534 155.283C90.7547 155.205 91.334 155.006 91.8561 154.698C92.3783 154.389 92.8325 153.978 93.1913 153.489C93.5501 153 93.806 152.444 93.9436 151.853C94.0812 151.263 94.0976 150.65 93.9919 150.053C93.7511 148.711 93.7719 147.426 94.4003 146.638Z" fill="#2F2E41"/>
<path d="M292.875 343.902H285.444L281.909 315.235L292.876 315.236L292.875 343.902Z" fill="#A0616A"/>
<path d="M280.137 341.778H294.467V350.802H271.114C271.114 349.617 271.347 348.444 271.801 347.349C272.254 346.254 272.919 345.259 273.757 344.421C274.594 343.583 275.589 342.918 276.684 342.465C277.778 342.011 278.952 341.778 280.137 341.778Z" fill="#2F2E41"/>
<path d="M346.788 335.483L340.03 338.571L324.906 313.965L334.881 309.408L346.788 335.483Z" fill="#A0616A"/>
<path d="M334.32 338.845L347.355 332.89L351.103 341.099L329.861 350.803C329.369 349.725 329.094 348.561 329.052 347.376C329.009 346.192 329.2 345.011 329.615 343.9C330.029 342.79 330.657 341.772 331.464 340.904C332.272 340.037 333.242 339.337 334.32 338.845Z" fill="#2F2E41"/>
<path d="M325.15 247.246C325.862 246.71 326.447 246.025 326.866 245.238C327.284 244.451 327.525 243.582 327.571 242.692C327.618 241.802 327.468 240.913 327.134 240.087C326.799 239.261 326.288 238.518 325.635 237.911L334.37 218.088L323.273 219.969L316.68 238.505C315.733 239.669 315.247 241.14 315.312 242.639C315.377 244.138 315.989 245.561 317.033 246.638C318.077 247.716 319.48 248.373 320.976 248.485C322.472 248.597 323.957 248.156 325.15 247.246Z" fill="#A0616A"/>
<path d="M292.401 336.343H285.303C284.614 336.341 283.952 336.079 283.448 335.61C282.944 335.141 282.635 334.499 282.582 333.813L278.711 230.419C278.682 230.023 278.741 229.625 278.881 229.254C279.022 228.882 279.243 228.546 279.527 228.269C279.811 227.991 280.153 227.779 280.527 227.648C280.902 227.516 281.301 227.468 281.696 227.506L322.749 231.867C323.414 231.932 324.033 232.239 324.487 232.73C324.94 233.221 325.198 233.862 325.211 234.53L326.071 280.139C326.076 280.386 326.124 280.631 326.213 280.862L343.053 324.541C343.183 324.878 343.245 325.238 343.235 325.6C343.224 325.961 343.142 326.317 342.993 326.647C342.844 326.976 342.631 327.273 342.366 327.519C342.102 327.765 341.79 327.957 341.451 328.082L334.258 330.733C333.633 330.963 332.946 330.956 332.325 330.715C331.705 330.473 331.194 330.013 330.89 329.421L310.203 289.187C310.09 288.969 310.008 288.736 309.958 288.495L306.424 271.464C306.321 270.97 306.046 270.529 305.648 270.22C305.25 269.91 304.755 269.753 304.251 269.776C303.747 269.798 303.268 270 302.9 270.344C302.531 270.688 302.297 271.152 302.239 271.653L295.111 333.925C295.035 334.591 294.716 335.205 294.217 335.651C293.717 336.097 293.071 336.343 292.401 336.343Z" fill="#2F2E41"/>
<path d="M295.935 149.575C304.157 149.575 310.821 142.909 310.821 134.686C310.821 126.463 304.157 119.797 295.935 119.797C287.714 119.797 281.05 126.463 281.05 134.686C281.05 142.909 287.714 149.575 295.935 149.575Z" fill="#A0616A"/>
<path d="M306.144 239.873C296.049 239.762 286.195 236.776 277.735 231.266L277.591 231.166L277.606 230.99L283.3 164.661C283.496 162.411 284.5 160.308 286.127 158.741C287.753 157.174 289.892 156.249 292.148 156.137C299.527 155.798 309.44 156.226 314.746 160.179C322.765 166.152 326.63 175.148 325.35 184.859C322.695 204.996 325.702 232.161 326.054 235.192L326.079 235.41L325.879 235.502C319.698 238.379 312.962 239.87 306.144 239.873Z" fill="#F4B740"/>
<path d="M325.985 235.304C325.565 235.303 325.151 235.216 324.767 235.046C324.383 234.877 324.038 234.63 323.754 234.321L320.498 230.768C320.146 230.381 319.9 229.911 319.782 229.402C319.664 228.893 319.679 228.362 319.826 227.861L327.251 202.725L315.954 178.996C315.426 177.885 315.297 176.627 315.588 175.432C315.844 174.383 316.412 173.437 317.217 172.717C318.022 171.998 319.027 171.54 320.097 171.403C321.168 171.266 322.255 171.457 323.215 171.951C324.175 172.445 324.963 173.218 325.475 174.169L340.805 199.049C341.428 200.058 341.794 201.205 341.87 202.388C341.946 203.572 341.73 204.756 341.242 205.837L328.75 233.52C328.545 233.977 328.228 234.376 327.83 234.681C327.431 234.986 326.963 235.187 326.468 235.265C326.308 235.291 326.147 235.304 325.985 235.304Z" fill="#F4B740"/>
<path d="M221.06 187.289C221.775 187.821 222.597 188.19 223.47 188.369C224.343 188.549 225.244 188.534 226.111 188.328C226.978 188.121 227.788 187.727 228.486 187.172C229.184 186.618 229.752 185.918 230.15 185.121L251.628 187.907L246.692 177.79L227.053 176.695C225.669 176.116 224.121 176.063 222.702 176.549C221.282 177.035 220.09 178.024 219.352 179.33C218.613 180.636 218.379 182.167 218.694 183.634C219.008 185.101 219.85 186.402 221.06 187.289V187.289Z" fill="#A0616A"/>
<path d="M268.401 192.815C268.027 192.815 267.654 192.789 267.283 192.737L233.494 188.05C232.942 187.974 232.417 187.762 231.967 187.433C231.517 187.103 231.157 186.667 230.918 186.164C230.84 186.002 230.776 185.833 230.725 185.661H230.725C230.594 185.214 230.557 184.744 230.617 184.281C230.677 183.819 230.833 183.374 231.073 182.975L233.869 178.338C234.17 177.842 234.593 177.432 235.098 177.147C235.603 176.862 236.172 176.711 236.752 176.71H236.756L266.209 176.743L288.206 157.031C289.23 156.116 290.537 155.581 291.908 155.516C293.112 155.46 294.304 155.771 295.328 156.407C296.352 157.042 297.159 157.974 297.643 159.078C298.127 160.182 298.265 161.406 298.038 162.59C297.812 163.774 297.233 164.862 296.376 165.71L274.427 190.127C273.667 190.972 272.738 191.649 271.7 192.112C270.662 192.575 269.538 192.815 268.401 192.815Z" fill="#F4B740"/>
<path d="M297.628 147.932C298.988 144.783 300.139 140.589 297.53 138.363C296.017 137.071 293.837 137.068 291.854 136.908C286.267 136.455 280.517 133.884 277.786 128.989C275.056 124.093 276.581 116.813 281.732 114.604C285.204 113.116 289.185 114.13 292.82 115.161L303.733 118.256C306.975 119.176 310.38 120.19 312.714 122.622C316.437 126.5 316.159 133.055 313.202 137.545C310.245 142.035 305.792 146.718 300.694 148.422L297.628 147.932Z" fill="#2F2E41"/>
<path d="M448.186 351H0.721654C0.62671 351 0.532648 350.982 0.444852 350.946C0.357056 350.909 0.277259 350.856 0.210026 350.789C0.142793 350.722 0.0894473 350.643 0.05305 350.555C0.0166528 350.467 -0.00208664 350.373 -0.00208664 350.278C-0.00208664 350.183 0.0166528 350.089 0.05305 350.001C0.0894473 349.914 0.142793 349.834 0.210026 349.767C0.277259 349.7 0.357056 349.647 0.444852 349.611C0.532648 349.575 0.62671 349.556 0.721654 349.556H448.186C448.28 349.556 448.375 349.575 448.462 349.611C448.55 349.647 448.63 349.7 448.697 349.767C448.764 349.834 448.818 349.914 448.854 350.001C448.891 350.089 448.909 350.183 448.909 350.278C448.909 350.373 448.891 350.467 448.854 350.555C448.818 350.643 448.764 350.722 448.697 350.789C448.63 350.856 448.55 350.909 448.462 350.946C448.375 350.982 448.28 351 448.186 351Z" fill="#3F3D56"/>
</g>
<defs>
<clipPath id="clip0">
<rect width="498" height="351" fill="white"/>
</clipPath>
</defs>
</svg>
